<svg xmlns="http://www.w3.org/2000/svg" xmlns:xlink="http://www.w3.org/1999/xlink" width="1949" height="1951" viewBox="0 0 1949 1951">
  <defs>
    <linearGradient id="linear-gradient" x1="0.544" y1="1.073" x2="-0.187" y2="0.317" gradientUnits="objectBoundingBox">
      <stop offset="0" stop-color="#0045ff"/>
      <stop offset="1" stop-color="#042682"/>
    </linearGradient>
    <linearGradient id="linear-gradient-2" x1="0.773" y1="0.418" x2="0.748" y2="1.151" xlink:href="#linear-gradient"/>
    <linearGradient id="linear-gradient-3" x1="0.916" y1="0.278" x2="0.352" y2="1.175" xlink:href="#linear-gradient"/>
    <clipPath id="clip-L-1">
      <rect width="1949" height="1951"/>
    </clipPath>
  </defs>
  <g id="L-1" clip-path="url(#clip-L-1)">
    <g id="Group_26" data-name="Group 26" transform="translate(-6374.42 -8783.591)">
      <path id="Polygon_32" data-name="Polygon 32" d="M229.482,66.432a21.94,21.94,0,0,1,8.07-11.4,30.586,30.586,0,0,1,13.567-5.463,41.948,41.948,0,0,1,16.125.714,45.957,45.957,0,0,1,15.989,7.254L540.549,240.306a51.022,51.022,0,0,1,14.21,15.208,42.337,42.337,0,0,1,6.009,17.445,27.933,27.933,0,0,1-2.782,15.976,21.875,21.875,0,0,1-12.319,10.407L199.427,422.511a45.613,45.613,0,0,1-25.73,1.571,46.52,46.52,0,0,1-21.466-11.575,45.957,45.957,0,0,1-12.619-20.618,44.551,44.551,0,0,1,.224-25.243Z" transform="translate(7087.489 9617.43)" fill="#0045ff"/>
      <path id="Polygon_34" data-name="Polygon 34" d="M364.188,255.976a28.756,28.756,0,0,1-8.006,15.367,33.219,33.219,0,0,1-15.258,8.478,42.415,42.415,0,0,1-19.156.337,48.159,48.159,0,0,1-19.306-8.848L52.252,81.785C46.561,77.474,43.1,72.5,41.6,67.444A20.7,20.7,0,0,1,42.729,52.7a28.049,28.049,0,0,1,11.008-11.87,45.023,45.023,0,0,1,19.089-6.1L361.005,5.145a41.4,41.4,0,0,1,16.434,1.8,47.906,47.906,0,0,1,14.445,7.374,35.568,35.568,0,0,1,9.866,10.959,18.973,18.973,0,0,1,2.424,12.608Z" transform="translate(7027.146 9494.554)" fill="#db3b2f"/>
      <path id="Path_78" data-name="Path 78" d="M4542.094,9681.741s1.459,148.779,14.586,215.875,79.016,176.461,79.016,176.461,30.249-43.211,64.034-53.033,49.894-10.682,71.343-9.658,59.751,10.725,82.732,35.238,29.11,45.453,31.663,51.068,6.129,34.217,7.15,44.941-7.15,45.918-7.15,45.918,120.016-4.547,179.256-18.338,217.558-63.326,275.776-92.436,166.492-78.127,203.262-103.664,43.409-33.2,43.409-33.2-63.326,70.477-156.784,131.76-304.885,184.363-344.72,204.279-181.81,61.285-214.493,69.453-85.8,10.723-125.632,0-85.8-27.064-108.778-51.578-45.963-43.92-64.859-81.2-37.28-97.033-43.408-127.162-11.235-69.457-12.769-125.635,1.021-133.291,5.107-177.721,21.259-138.4,21.259-138.4Z" transform="translate(2161 19.324)" fill="url(#linear-gradient)"/>
      <path id="Path_79" data-name="Path 79" d="M1045.077,37.028s-1.459,148.778-14.586,215.873-79.015,176.463-79.015,176.463-30.249-43.212-64.034-53.034-49.893-10.681-71.342-9.66-59.751,10.725-82.733,35.239-29.11,45.453-31.663,51.069-6.129,34.217-7.15,44.941,7.15,45.918,7.15,45.918S581.688,539.291,522.447,525.5,304.89,462.175,246.671,433.066,80.179,354.937,43.409,329.4,0,296.205,0,296.205s63.327,70.477,156.784,131.761S461.67,612.328,501.5,632.245,683.313,693.527,716,701.7s85.8,10.724,125.631,0,85.8-27.066,108.778-51.58,45.962-43.92,64.859-81.2,37.281-97.033,43.409-127.164,11.235-69.456,12.767-125.632-1.021-133.294-5.107-177.724S1045.077,0,1045.077,0Z" transform="translate(7076.621 10213.208) rotate(-60)" fill="url(#linear-gradient-2)"/>
      <path id="Path_80" data-name="Path 80" d="M1045.077,37.028s-1.459,148.778-14.586,215.873-79.015,176.463-79.015,176.463-30.249-43.212-64.034-53.034-49.893-10.681-71.342-9.66-59.751,10.725-82.733,35.239-29.11,45.453-31.663,51.069-6.129,34.217-7.15,44.941,7.15,45.918,7.15,45.918S581.688,539.291,522.447,525.5,304.89,462.175,246.671,433.066,80.179,354.937,43.409,329.4,0,296.205,0,296.205s63.327,70.477,156.784,131.761S461.67,612.328,501.5,632.245,683.313,693.527,716,701.7s85.8,10.724,125.631,0,85.8-27.066,108.778-51.58,45.962-43.92,64.859-81.2,37.281-97.033,43.409-127.164,11.235-69.456,12.767-125.632-1.021-133.294-5.107-177.724S1045.077,0,1045.077,0Z" transform="translate(7878.334 9646.359) rotate(169)" fill="url(#linear-gradient-3)"/>
    </g>
  </g>
</svg>
